<?xml version="1.0" standalone="no"?><!DOCTYPE svg PUBLIC "-//W3C//DTD SVG 1.1//EN" "http://www.w3.org/Graphics/SVG/1.1/DTD/svg11.dtd"><svg t="1585237126919" class="icon" viewBox="0 0 1163 1024" version="1.1" xmlns="http://www.w3.org/2000/svg" p-id="3939" xmlns:xlink="http://www.w3.org/1999/xlink" width="227.1484375" height="200"><defs><style type="text/css"></style></defs><path d="M139.636364 977.454545H69.818182v46.545455h1047.272727v-46.545455h-69.818182v-209.454545h-93.090909v-46.545455h-23.272727v-162.90909c0-16.290909-16.290909-39.563636-46.545455-69.818182 2.327273 0 2.327273-39.563636 0-116.363637H279.272727v139.636364l-46.545454 46.545455c2.327273-4.654545 2.327273 48.872727 0 162.90909H186.181818v46.545455H139.636364v209.454545z" fill="#F92D2D" p-id="3940"></path><path d="M93.090909 977.454545H0v46.545455h1163.636364v-46.545455h-93.090909v-209.454545H93.090909zM977.454545 584.145455c41.890909-6.981818 62.836364-20.945455 88.436364-44.218182C1093.818182 512 1070.545455 512 1024 523.636364c-37.236364 9.309091-86.109091-2.327273-116.363636-34.909091H256c-62.836364 32.581818-107.054545 41.890909-132.654545 34.909091-30.254545-11.636364-32.581818-6.981818-27.927273 4.654545 4.654545 9.309091 20.945455 53.527273 114.036363 53.527273 60.509091 0 763.345455 2.327273 768 2.327273zM909.963636 393.309091c32.581818 0 46.545455-2.327273 58.181819-6.981818 11.636364-2.327273 32.581818-18.618182 0-23.272728-41.890909-2.327273-130.327273-90.763636-130.327273-107.054545V162.909091h-23.272727v69.818182H349.090909V162.909091h-23.272727v93.090909c-4.654545 9.309091-74.472727 102.4-139.636364 102.4-23.272727 0-34.909091 0-16.290909 13.963636s60.509091 18.618182 65.163636 18.618182c20.945455 4.654545 342.109091 4.654545 674.909091 2.327273z" fill="#FF6C6C" p-id="3941"></path></svg>