<?xml version="1.0" standalone="no"?><!DOCTYPE svg PUBLIC "-//W3C//DTD SVG 1.1//EN" "http://www.w3.org/Graphics/SVG/1.1/DTD/svg11.dtd"><svg t="1585237168913" class="icon" viewBox="0 0 1024 1024" version="1.1" xmlns="http://www.w3.org/2000/svg" p-id="6231" xmlns:xlink="http://www.w3.org/1999/xlink" width="200" height="200"><defs><style type="text/css"></style></defs><path d="M357.059185 237.580029c-4.511013 4.511013-4.511013 9.022026 1.503671 10.525698 6.014684 1.503671 12.029369-4.511013 16.540382 1.503671 3.007342 6.014684 6.014684 6.014684 1.503671 9.022026-6.014684 4.511013-9.022026 1.503671-10.525697 9.022027-1.503671 10.525698-4.511013 21.051395-10.525698 30.073421-1.503671 9.022026-6.014684 22.555066-10.525697 31.577093-3.007342 3.007342-15.036711 40.599119-15.036711 43.606461-1.503671 30.073421-16.540382 36.088106-24.058737 39.095448-1.503671 1.503671-7.518355 4.511013-12.029369 7.518355-3.007342 3.007342-13.53304 24.058737-13.533039 28.56975-1.503671 4.511013-3.007342 24.058737 4.511013 28.569751 6.014684 4.511013 34.584435 46.613803 34.584435 54.132158 0 4.511013 1.503671 9.022026 0 15.036711-3.007342 6.014684-4.511013 9.022026-13.53304 13.53304-9.022026 3.007342-6.014684 9.022026-4.511013 12.029368 3.007342 3.007342 9.022026 6.014684 6.014684 10.525698-4.511013 10.525698-16.540382 25.562408-24.058737 34.584435-13.53304 15.036711-15.036711 10.525698-12.029369 30.073421 1.503671 9.022026 1.503671 19.547724 0 22.555066-3.007342 1.503671 15.036711 31.577093 10.525698 43.606461-4.511013 9.022026-1.503671 70.67254 3.007342 75.183554 0-1.503671 6.014684 22.555066 6.014684 28.56975 12.029369 13.53304 1.503671 28.56975 7.518356 37.591777 3.007342 6.014684 4.511013 15.036711 0 21.051395-4.511013 7.518355-9.022026 12.029369-12.029369 16.540382-3.007342 4.511013-6.014684 3.007342-7.518355 9.022026-4.511013 6.014684-13.53304 37.591777-15.036711 42.10279-3.007342 16.540382-10.525698 57.139501-7.518355 72.176212l1.503671 1.503671c1.503671 3.007342 6.014684 4.511013 9.022026 6.014684 3.007342 0 6.014684 0 9.022026 1.503671h19.547724c6.014684-1.503671 19.547724-3.007342 21.051395-4.511013 1.503671-1.503671 16.540382-10.525698 27.06608-13.53304 10.525698-3.007342 18.044053-10.525698 28.56975-13.53304 10.525698-3.007342 27.066079-4.511013 36.088106-7.518355 9.022026-3.007342 25.562408-7.518355 31.577092-19.547724 6.014684-12.029369 16.540382-24.058737 28.569751-24.058737 6.014684 0 13.53304 0 19.547724 3.007342 1.503671-3.007342 0-9.022026 0-16.540382 0-13.53304 3.007342-15.036711 12.029368-16.540381 10.525698-1.503671 24.058737 4.511013 37.591777 6.014684 13.53304 1.503671 24.058737-9.022026 31.577092-4.511013 9.022026 4.511013 10.525698 4.511013 16.540382-1.503671 6.014684-6.014684 15.036711-4.511013 21.051395-13.53304 1.503671-3.007342 3.007342-4.511013 3.007342-4.511013 3.007342-3.007342 3.007342-3.007342 10.525698-1.503671 9.022026 1.503671 10.525698-3.007342 12.029369-12.029369 1.503671-9.022026 12.029369-3.007342 16.540381-7.518355 4.511013-4.511013 13.53304-4.511013 21.051395-13.53304 9.022026-9.022026 10.525698-10.525698 13.53304-16.540382 3.007342-6.014684-1.503671-18.044053-3.007342-24.058737 0-6.014684 6.014684-9.022026 4.511013-13.53304-1.503671-4.511013-3.007342-9.022026 3.007342-15.03671 6.014684-4.511013 0-15.036711 0-22.555066s1.503671-13.53304 4.511013-27.06608v-1.503671c1.503671-4.511013 1.503671-7.518355 1.503671-10.525697h1.503672c-1.503671-6.014684-3.007342-7.518355-7.518356-13.53304-6.014684-9.022026-15.036711-6.014684-15.036711-13.533039 0-6.014684-3.007342-13.53304-7.518355-16.540382-6.014684-3.007342-6.014684-13.53304 4.511013-18.044053 10.525698-4.511013 12.029369-6.014684 15.036711-15.036711 3.007342-9.022026-1.503671-10.525698 9.022026-6.014684 10.525698 3.007342 3.007342-13.53304 1.503672-27.066079s-1.503671-15.036711 4.511013-19.547724 4.511013-13.53304 9.022026-21.051395c3.007342-9.022026 21.051395-39.095448 22.555066-52.628488 1.503671-12.029369 3.007342-15.036711-6.014684-16.540382-9.022026-1.503671-7.518355-6.014684-7.518355-15.03671s-4.511013-7.518355-13.53304-28.569751c-7.518355-21.051395-12.029369-21.051395-13.53304-28.56975-1.503671-7.518355-18.044053-7.518355-25.562408-12.029369-7.518355-4.511013-7.518355-12.029369-9.022026-19.547724-1.503671-7.518355-1.503671-19.547724 0-31.577092s19.547724-25.562408 28.56975-34.584435c9.022026-7.518355 1.503671-13.53304-3.007342-19.547724-6.014684-7.518355-3.007342-12.029369-1.503671-19.547724 3.007342-7.518355 19.547724-21.051395 25.562408-25.562408 6.014684-4.511013 16.540382 7.518355 24.058737 6.014684 9.022026-3.007342 15.036711-1.503671 15.036711-7.518355s3.007342-9.022026 10.525697-10.525697c6.014684-1.503671 3.007342-10.525698 0-16.540382-3.007342-6.014684 4.511013-15.036711 10.525698-33.080764 4.511013-18.044053-1.503671-19.547724-7.518355-22.555066-6.014684-4.511013-6.014684-10.525698-6.014685-27.066079s-3.007342-13.53304-10.525697-13.53304c-7.518355 1.503671-13.53304 3.007342-16.540382-3.007342-3.007342-6.014684-6.014684-4.511013-13.53304-4.511013s-9.022026-10.525698-13.533039-16.540382c-3.007342-6.014684 0-10.525698 9.022026-9.022026 9.022026 1.503671 6.014684-6.014684 4.511013-12.029369-1.503671-6.014684 1.503671-4.511013 4.511014-3.007342 3.007342 1.503671 9.022026-3.007342 13.533039-7.518356 4.511013-4.511013 16.540382-9.022026 28.569751-13.533039 12.029369-4.511013-4.511013-12.029369-10.525698-10.525698-6.014684 1.503671-9.022026-6.014684-15.036711-16.540381-6.014684-12.029369 1.503671-18.044053-3.007342-19.547724-6.014684-4.511013-7.518355-10.525698-13.533039-18.044053l-6.014685-6.014685-6.014684-9.022026c1.503671 10.525698-1.503671 19.547724 0 31.577093 1.503671 15.036711-6.014684 3.007342-13.53304 12.029368-7.518355 9.022026-7.518355 7.518355-13.533039 3.007342-6.014684-3.007342-10.525698 1.503671-24.058737 16.540382 0 0-1.503671 3.007342-1.503672 7.518355 0 3.007342-1.503671 9.022026-3.007342 10.525698-4.511013 6.014684-12.029369 9.022026-24.058737 9.022026s-13.53304-3.007342-19.547724-6.014684c-6.014684-1.503671-12.029369 0-19.547724 1.503671-1.503671 0-4.511013-1.503671-7.518355-1.503671h-7.518355c-13.53304 3.007342-24.058737 4.511013-40.599119-1.503671-6.014684-1.503671-12.029369-6.014684-18.044053-9.022026-10.525698-4.511013-21.051395-6.014684-28.569751 3.007342-9.022026 9.022026-15.036711 22.555066-18.044052 39.095448-1.503671 6.014684 0 13.53304 0 19.547723 0 22.555066 1.503671 43.606461 0 54.132159v7.518355c0 6.014684-1.503671 12.029369-7.518356 15.036711-3.007342 1.503671-9.022026 0-13.533039-1.503671-3.007342 0-6.014684-1.503671-7.518356-1.503671-16.540382-3.007342-21.051395-3.007342-31.577092-3.007342h-6.014685c0 13.53304-3.007342 28.56975-10.525697 30.073421-12.029369 1.503671-19.547724-10.525698-31.577093 1.503671" fill="#00A95D" p-id="6232"></path></svg>