<?xml version="1.0" standalone="no"?><!DOCTYPE svg PUBLIC "-//W3C//DTD SVG 1.1//EN" "http://www.w3.org/Graphics/SVG/1.1/DTD/svg11.dtd"><svg t="1585237142135" class="icon" viewBox="0 0 1024 1024" version="1.1" xmlns="http://www.w3.org/2000/svg" p-id="4919" xmlns:xlink="http://www.w3.org/1999/xlink" width="200" height="200"><defs><style type="text/css"></style></defs><path d="M206 912h609l-21.524 76H227.524zM228 572h566v340h-29.203l-0.135-192.941H637.516V912h-29.434V719.059H413.948V912h-25.915V719.059H258.595V912H228V719.059z" fill="#EF5918" p-id="4920"></path><path d="M794 595v108.952c-52.853-2.315-99.492-26.721-110.17-69.05-53.091 43.714-109.891 65.79-170.401 66.226l-1.835 0.007-1.835-0.007c-60.51-0.437-117.31-22.512-170.4-66.226C328.601 677.548 281.342 702 228.001 704L228 595h566z" fill="#D63A0C" p-id="4921"></path><path d="M511.5 666.012l-1.833-0.006c-60.45-0.436-117.194-22.434-170.232-65.995-16.692 66.001-121.34 88.273-200.103 50.909C86.822 626.01 50.379 567.037 30 474c32.502 48.173 66.196 74.06 101.082 77.662 34.536 3.566 82.282-8.48 143.238-36.136l1.851-0.843H746.83c61.84 28.254 110.204 40.58 145.09 36.979C926.803 548.06 960.497 522.173 993 474c-20.379 93.037-56.823 152.01-109.332 176.92-78.763 37.364-183.41 15.092-200.103-50.91-53.574 44.002-110.929 66.002-172.065 66.002l-1.833-0.006 1.833 0.006z" fill="#73D2DA" p-id="4922"></path><path d="M308 343h412v172h-29.33v-56.838h-84.798L605.87 515h-29.484v-56.838H451.614V515h-29.431l0.06-56.838H337.5V515h-29.415L308 458.162z" fill="#EF5918" p-id="4923"></path><path d="M720 343v102.793c-27.438-9.632-50.078-34.017-67.921-73.156-27.288 43.838-72.669 67.216-136.142 70.132l-1.35 0.056v0.026l-0.29-0.014-0.29 0.014v-0.026l-1.348-0.056c-63.473-2.916-108.854-26.294-136.142-70.132C358.545 412.06 335.706 436.513 308 446V343h412z" fill="#D63A0C" p-id="4924"></path><path d="M490.545 145h46.91c35.306 98.776 167.805 159.676 239.224 162.884 47.612 2.139 87.386-17.99 119.321-60.388-11.507 93.076-47.342 150.348-107.506 171.816-60.163 21.468-105.775-2.026-136.837-70.481-27.264 44.005-72.604 67.471-136.02 70.399l-1.348 0.057v0.025l-0.29-0.014-0.289 0.014v-0.025l-1.348-0.057c-63.415-2.928-108.755-26.394-136.019-70.4-31.062 68.456-76.674 91.95-136.837 70.482-60.164-21.468-95.999-78.74-107.506-171.816 31.935 42.397 71.709 62.527 119.321 60.388C322.74 304.676 455.24 243.776 490.545 145h46.91-46.91z" fill="#FFD42B" p-id="4925"></path><path d="M514.59 37c13.381 0 24.228 10.662 24.228 23.814 0 9.684-5.88 37.383-14.323 51.318L539 112.13c7.732 0 14 6.268 14 14V131c0 7.732-6.268 14-14 14h-50c-7.732 0-14-6.268-14-14v-4.87c0-7.732 6.268-14 14-14l15.687 0.002c-8.443-13.935-14.323-41.634-14.323-51.318C490.364 47.662 501.21 37 514.59 37z" fill="#EF5918" p-id="4926"></path><path d="M388.362 716.632a2.296 2.296 0 0 1 2.297 2.295v192.778a2.296 2.296 0 0 1-2.297 2.295H258.92a2.296 2.296 0 0 1-2.297-2.295V718.927a2.296 2.296 0 0 1 2.297-2.295h129.44z m377.731 0a2.296 2.296 0 0 1 2.298 2.295v192.778a2.296 2.296 0 0 1-2.298 2.295h-129.44a2.296 2.296 0 0 1-2.298-2.295V718.927a2.296 2.296 0 0 1 2.298-2.295h129.44z m-156.505 0a2.296 2.296 0 0 1 2.297 2.295v192.778a2.296 2.296 0 0 1-2.297 2.295H415.427a2.296 2.296 0 0 1-2.298-2.295V718.927a2.296 2.296 0 0 1 2.298-2.295h194.16z m-223.524 4.59H261.218V909.41h124.846V721.222z m377.732 0H638.95V909.41h124.846V721.222z m-156.506 0H417.724V909.41H607.29V721.222zM424.784 455.676v56.735h24.823v-56.735h129.33l-0.001 56.735h24.824v-56.735h89.32l-0.001 56.735h28.517a2.296 2.296 0 0 1 0.171 4.584l-0.171 0.007L623.34 517l0.289 0.856c12.981 38.165 33.111 64.734 60.378 79.824a2.293 2.293 0 0 1 2.383 1.726c9.91 39.114 53.236 64.744 108.406 67.043a2.299 2.299 0 0 1 2.202 2.389 2.3 2.3 0 0 1-2.393 2.197c-55.407-2.31-99.654-27.634-111.713-67.077-52.707 42.385-109.103 63.822-169.133 64.252l-1.82 0.006c3.04-0.01 3.05-4.579-0.006-4.59l-0.018 4.59-1.842-0.006c-59.419-0.428-115.284-21.442-167.534-62.987l-1.582-1.265c-12.125 39.659-56.797 65.037-112.573 67.11a2.299 2.299 0 0 1-2.382-2.207 2.298 2.298 0 0 1 2.212-2.379c55.534-2.064 99.282-27.75 109.246-67.076a2.269 2.269 0 0 1 1.102-1.439l0.022-0.011c27.726-15.152 48.12-42.096 61.17-80.955h-91.578a2.296 2.296 0 0 1-0.171-4.584l0.171-0.006 27.288-0.001v-56.735h89.32z m85.314 207.945c-2.997-0.011-3.078 4.381-0.212 4.583l0.196 0.007 0.016-4.59z m108.4-146.619l-213.904-0.001-0.326 0.988c-12.928 38.762-33.098 66.24-60.522 82.32C395.166 641.687 450 662.766 508.3 663.601l1.798 0.02 1.83 0.006 1.815-0.006c58.86-0.424 114.186-21.423 166.042-63.056-27.88-16.18-48.305-44.074-61.286-83.563zM420.19 460.266h-80.13V512.1h80.13v-51.833z m268.295 0h-80.13V512.1h80.13v-51.833z m-114.143 0h-120.14V512.1h120.14v-51.833zM538.038 143v4.59l-13.468-0.001 0.5 1.462c50.53 147.475 93.073 213.022 125.924 197.465a2.3 2.3 0 0 1 2.92 0.839c0.193 0.19 0.358 0.421 0.481 0.693 17.62 38.786 39.857 62.8 66.66 72.205a2.294 2.294 0 1 1-1.523 4.33c-27.227-9.554-49.728-33.211-67.55-70.82-27.641 41.948-72.321 64.547-133.809 67.789l-1.868 0.092-1.003 0.042c-0.118 0.023-0.24 0.037-0.364 0.041l-0.188-0.001-0.18-0.009-0.18 0.009c-0.126 0.006-0.25 0.001-0.371-0.012l-0.18-0.028-1.014-0.043c-62.442-2.879-107.747-25.509-135.667-67.88-18.118 38.234-41.073 62.048-68.91 71.284a2.294 2.294 0 1 1-1.448-4.356c27.38-9.084 50.044-33.24 67.945-72.643 0.736-1.62 2.937-1.81 3.953-0.398l0.03 0.014c32.85 15.557 75.393-49.99 125.923-197.465l0.891-2.61-14.44 0.001V143h46.936z m-23.469 276.42l-0.11 2.292 0.11 0.005 0.11-0.005-0.11-2.293z m-4.173-271.829c-49.46 145.408-91.498 214.42-127.599 206.32 26.907 38.933 69.62 59.95 128.355 63.054l1.876 0.093 1.43 0.062 0.08 0.007h0.063l0.08-0.007 1.422-0.062c60.314-2.78 103.922-24.228 131.06-64.35-36.059 8.438-78.046-60.172-127.446-205.112l-9.32-0.005z m-21.58-2.071l0.026 0.188c0.085 0.468 0.312 0.887 0.636 1.21 0.37 0.369 0.864 0.613 1.415 0.663l0.21 0.009c-0.69 0-1.224-0.232-1.603-0.593l-0.121-0.124-0.127-0.158a2.365 2.365 0 0 1-0.43-1.117l-0.006-0.078z m51.505 0.013l-0.004 0.065c-0.047 0.402-0.19 0.791-0.429 1.117l-0.127 0.158-0.12 0.124c-0.338 0.32-0.797 0.54-1.38 0.584l-0.223 0.009c0.634 0 1.209-0.257 1.624-0.672 0.324-0.323 0.551-0.742 0.636-1.21l0.023-0.175z m0-0.478l0.005 0.031 0.007 0.108 0.002 0.101-0.002 0.101-0.007 0.108-0.005 0.029 0.007-0.076 0.004-0.11v-0.105l-0.004-0.109-0.007-0.078z m-51.514 0.292l0.004 0.109-0.004-0.06v-0.05z m0.004-0.214l-0.004 0.11v-0.05l0.004-0.06z m2.291-2.133c-0.634 0-1.209 0.257-1.624 0.672-0.324 0.323-0.551 0.742-0.636 1.21l-0.026 0.186 0.007-0.076c0.047-0.402 0.19-0.791 0.429-1.117l0.127-0.158 0.12-0.124c0.338-0.32 0.797-0.54 1.38-0.585l0.223-0.008z m46.936 0l0.224 0.008c0.582 0.045 1.041 0.264 1.378 0.585l0.12 0.124 0.128 0.158c0.239 0.326 0.382 0.715 0.43 1.117l0.003 0.063-0.023-0.173a2.289 2.289 0 0 0-0.636-1.21 2.291 2.291 0 0 0-1.624-0.672z" fill="#3B3B3B" p-id="4927"></path><path d="M137.742 243.377c30.601 40.623 68.227 59.663 113.48 57.63 16.927-0.76 37.465-4.921 59.174-12.069a6.887 6.887 0 1 1 4.307 13.083c-22.833 7.518-44.586 11.925-62.862 12.746-42.27 1.899-78.778-12.996-109.157-44.376 14.01 76.631 47.178 123.784 99.35 142.399 23.987 8.558 45.191 9.538 63.81 3.134 4.391-1.51 8.96 1.667 9.122 6.26l0.005 0.252v35.379l0.085 56.75a6.887 6.887 0 0 1-6.628 6.892l-0.259 0.005-30.55 0.001-0.5 0.228c-61.98 28.102-110.81 40.412-146.818 36.697-29.373-3.03-57.52-20.506-84.55-52.098l-0.818-0.962 0.629 2.156c20.856 70.888 53.167 116.429 96.648 137.042 26.255 12.447 56.35 18.375 85.665 17.28 3.815-0.143 7 2.84 7.14 6.623l0.004 0.259v242.998a6.887 6.887 0 0 1-6.63 6.882l-0.258 0.005h-12.416l17.632 62.653h555.118l17.632-62.653h-12.416a6.887 6.887 0 0 1-6.882-6.629l-0.004-0.258-0.002-243.046a6.887 6.887 0 0 1 7.187-6.88c29.662 1.295 60.206-4.621 86.81-17.234 43.48-20.613 75.79-66.152 96.647-137.038l0.629-2.156-1.095 1.284c-5.112 5.955-10.261 11.402-15.45 16.341a6.887 6.887 0 1 1-9.496-9.976c11.885-11.314 23.679-25.62 35.36-42.923 4.249-6.292 14.06-2.088 12.435 5.329-20.795 94.874-58.359 155.62-113.13 181.585-26.127 12.386-55.666 18.757-84.818 18.736l-1.305-0.005v229.096h14.623c4.48 0 7.743 4.2 6.693 8.508l-0.064 0.245-21.509 76.427a6.9 6.9 0 0 1-6.35 5.021H228.132a6.887 6.887 0 0 1-6.548-4.754l-0.08-0.267-21.51-76.427c-1.213-4.313 1.945-8.592 6.378-8.749l0.252-0.004h14.622V675.708l-1.307-0.003c-28.775-0.15-57.862-6.518-83.628-18.733-54.771-25.966-92.335-86.71-113.13-181.585-1.626-7.417 8.186-11.62 12.435-5.329 31.476 46.623 63.583 71.274 96.1 74.63 32.747 3.378 78.827-8.123 137.913-34.727l1.794-0.81 1.852-0.843a6.887 6.887 0 0 1 2.483-0.609l0.369-0.01h25.146l-0.074-49.864V431.55c-19.397 4.421-40.704 2.45-63.793-5.788-62.94-22.457-100.204-82.005-111.999-177.396-0.865-6.997 8.094-10.62 12.336-4.99zM514.434 30c16.928 0 30.712 13.472 30.985 30.323l0.004 0.511-0.012 0.82c-0.282 10.62-4.444 28.966-9.896 42.845l-0.299 0.753h0.97c12.894 0 23.347 10.453 23.347 23.348 0 9.127-5.237 17.031-12.87 20.87 16.973 41.253 52.864 78.24 100.523 106.93 43.586 26.236 93.613 42.979 129.878 44.607 45.254 2.033 82.88-17.007 113.48-57.63 4.242-5.631 13.201-2.008 12.336 4.989-11.795 95.39-49.058 154.94-111.999 177.396-22.978 8.2-44.191 10.19-63.512 5.851l-0.877-0.201v76.277h20.382c0.987 0 1.963 0.212 2.86 0.622 55.476 25.33 99.71 37.59 132.454 36.925a6.887 6.887 0 0 1 0.28 13.77c-34.566 0.703-79.62-11.6-135.395-36.776l-1.693-0.767h-25.774a6.887 6.887 0 0 1-6.882-6.63l-0.005-0.258v-92.347c0-4.75 4.697-8.075 9.177-6.494 18.752 6.613 40.136 5.698 64.357-2.944 51.65-18.429 84.675-64.828 98.923-140.11l0.426-2.29-0.913 0.937c-30.197 30.74-66.397 45.32-108.243 43.44-38.71-1.738-90.917-19.21-136.363-46.567-51.4-30.94-90.052-71.385-107.642-117.223-5.127-3.095-3.98-12.546 3.44-12.798l0.597-0.01a9.574 9.574 0 0 0 9.282-9.57c0-5.19-4.13-9.415-9.28-9.57l-0.293-0.004-11.899 0.003c-5.358 0-8.665-5.848-5.902-10.439 6.438-10.697 12.75-34.902 13.236-46.67l0.019-0.543 0.01-0.637c0-9.353-7.693-16.965-17.217-16.965-9.525 0-17.217 7.612-17.217 16.965 0 10.688 6.379 35.963 12.965 47.343l0.428 0.73c2.485 4.48-0.653 10.031-5.773 10.211l-0.258 0.005-13.073-0.003a9.574 9.574 0 0 0-9.574 9.575c0 5.19 4.129 9.415 9.281 9.57l0.605 0.01c6.883 0.239 8.362 8.399 4.436 12.041l-0.182 0.163-0.516 1.344c-17.248 44.311-54.18 83.548-103.393 114.053a6.887 6.887 0 1 1-7.256-11.707c45.737-28.35 80.075-64.346 96.617-104.362-7.901-3.742-13.366-11.789-13.366-21.112 0-12.762 10.239-23.133 22.951-23.345l0.398-0.003h2.15c-5.788-14.448-10.214-34.117-10.214-44.513 0-16.993 13.891-30.739 30.99-30.739z m414.462 501.9a7.055 7.055 0 1 1 0 14.11 7.055 7.055 0 0 1 0-14.11zM359.819 268.52a7.055 7.055 0 1 1 0 14.11 7.055 7.055 0 0 1 0-14.11z" fill="#3B3B3B" p-id="4928"></path></svg>